<?xml version="1.0" encoding="UTF-8"?>
<!DOCTYPE svg PUBLIC "-//W3C//DTD SVG 1.1//EN" "http://www.w3.org/Graphics/SVG/1.1/DTD/svg11.dtd">
<!-- Creator: CorelDRAW 2020 (64-Bit) -->
<svg xmlns="http://www.w3.org/2000/svg" xml:space="preserve" width="0.0799921in" height="0.0799921in" version="1.1" style="shape-rendering:geometricPrecision; text-rendering:geometricPrecision; image-rendering:optimizeQuality; fill-rule:evenodd; clip-rule:evenodd"
viewBox="0 0 79.99 79.99"
 xmlns:xlink="http://www.w3.org/1999/xlink"
 xmlns:xodm="http://www.corel.com/coreldraw/odm/2003">
 <defs>
  <style type="text/css">
   <![CDATA[
    .fil0 {fill:#0082BB;fill-rule:nonzero}
   ]]>
  </style>
 </defs>
 <g id="Layer_x0020_1">
  <metadata id="CorelCorpID_0Corel-Layer"/>
  <path class="fil0" d="M45.66 25.09c-2.74,-1.67 -5.64,-3 -8.7,-3.99 -3.07,-0.99 -5.69,-1.48 -7.87,-1.48 -2.08,0 -3.72,0.38 -4.94,1.14 -1.22,0.76 -1.83,1.87 -1.83,3.35 0,1.87 0.87,3.31 2.62,4.3 1.75,0.99 4.45,2.02 8.1,3.08 3.65,1.06 6.65,2.13 9.01,3.19 2.36,1.07 4.37,2.66 6.05,4.79 1.67,2.13 2.51,4.94 2.51,8.44 0,3.4 -0.9,6.33 -2.7,8.78 -1.8,2.46 -4.27,4.32 -7.41,5.59 -3.15,1.27 -6.72,1.9 -10.72,1.9 -4.31,0 -8.54,-0.76 -12.7,-2.28 -4.16,-1.52 -7.76,-3.6 -10.8,-6.24l4.79 -9.81c2.69,2.43 5.78,4.39 9.28,5.85 3.5,1.47 6.69,2.2 9.58,2.2 2.48,0 4.43,-0.46 5.82,-1.37 1.39,-0.91 2.09,-2.23 2.09,-3.95 0,-1.37 -0.47,-2.5 -1.41,-3.38 -0.94,-0.89 -2.13,-1.61 -3.57,-2.17 -1.44,-0.56 -3.44,-1.19 -5.97,-1.9 -3.65,-1.02 -6.63,-2.03 -8.93,-3.04 -2.31,-1.01 -4.3,-2.56 -5.97,-4.64 -1.67,-2.08 -2.51,-4.84 -2.51,-8.29 0,-3.19 0.86,-5.99 2.59,-8.4 1.72,-2.41 4.13,-4.26 7.22,-5.55 3.09,-1.29 6.69,-1.94 10.8,-1.94 3.65,0 7.25,0.53 10.8,1.6 3.55,1.06 6.69,2.48 9.43,4.26l-4.64 9.96zm18.47 -18.02c3.09,4.41 5.46,9.44 7.11,15.09 1.65,5.65 2.47,11.59 2.47,17.83 0,6.24 -0.82,12.18 -2.47,17.83 -1.65,5.65 -4.02,10.68 -7.11,15.09l-10.49 0c2.84,-4.51 5.07,-9.61 6.69,-15.28 1.62,-5.68 2.43,-11.56 2.43,-17.64 0,-6.08 -0.81,-11.96 -2.43,-17.64 -1.62,-5.68 -3.85,-10.77 -6.69,-15.28l10.49 0z"/>
 </g>
</svg>
